<svg width="17" height="17" viewBox="0 0 17 17" fill="none" xmlns="http://www.w3.org/2000/svg">
<path fill-rule="evenodd" clip-rule="evenodd" d="M5.5 1.5V2.5H11.5V1.5H12.8333V2.5H14.5C14.7761 2.5 15 2.72386 15 3V14.85C15 15.209 14.709 15.5 14.35 15.5H2.65C2.29101 15.5 2 15.209 2 14.85V3C2 2.72386 2.22386 2.5 2.5 2.5H4.16667V1.5H5.5ZM13.7 14.2V6.83333H3.3V14.2H13.7Z" fill="#FAFCFF" fill-opacity="0.8"/>
<path fill-rule="evenodd" clip-rule="evenodd" d="M5.1665 8.51669H6.50582V9.85003H5.1665V8.51669ZM7.83017 8.51669H9.1695V9.85003H7.83017V8.51669ZM10.4938 8.51669H11.8332V9.85003H10.4938V8.51669ZM5.1665 11.1834H6.50582V12.5167H5.1665V11.1834ZM7.83017 11.1834H9.1695V12.5167H7.83017V11.1834Z" fill="#FAFCFF" fill-opacity="0.8"/>
</svg>
