<svg width="20" height="20" viewBox="0 0 20 20" fill="none" xmlns="http://www.w3.org/2000/svg">
<path fill-rule="evenodd" clip-rule="evenodd" d="M9.99935 5.83328C10.4596 5.83328 10.8327 6.20638 10.8327 6.66662V9.65478L12.2553 11.0774C12.5807 11.4028 12.5807 11.9304 12.2553 12.2559C11.9298 12.5813 11.4022 12.5813 11.0768 12.2559L9.4101 10.5892C9.25385 10.4329 9.16602 10.2209 9.16602 9.99995V6.66662C9.16602 6.20638 9.5391 5.83328 9.99935 5.83328Z" fill="#FAFCFF"/>
<path fill-rule="evenodd" clip-rule="evenodd" d="M9.99889 2.67048C14.0469 2.67048 17.3284 5.95199 17.3284 9.99997C17.3284 14.0479 14.0469 17.3294 9.99897 17.3294C9.54922 17.3294 9.18456 17.694 9.18456 18.1438C9.18456 18.5936 9.54922 18.9581 9.99897 18.9581C14.9465 18.9581 18.9571 14.9475 18.9571 9.99997C18.9571 5.05245 14.9464 1.04172 9.99889 1.04172C5.98247 1.04172 2.62538 3.68302 1.48535 7.31276C1.40766 7.56013 1.45239 7.8297 1.60582 8.03871C1.75925 8.24771 2.00303 8.37113 2.26231 8.37113H4.29827C4.74804 8.37113 5.11266 8.00656 5.11266 7.55679C5.11266 7.3319 5.0215 7.1283 4.87412 6.98093L4.35503 6.46183C4.12758 6.23438 4.01385 6.12066 4.00457 5.96645C3.99528 5.81223 4.08752 5.69463 4.272 5.45943C5.60558 3.75913 7.66847 2.67048 9.99889 2.67048ZM2.66978 10.0006C2.66978 9.55088 2.30517 9.18622 1.8554 9.18622C1.40563 9.18622 1.04102 9.55088 1.04102 10.0006C1.04102 10.2998 1.05451 10.5959 1.08092 10.8883C1.12137 11.3362 1.51732 11.6666 1.96526 11.6261C2.41321 11.5856 2.74354 11.1897 2.70308 10.7417C2.68107 10.4981 2.66978 10.2508 2.66978 10.0006ZM3.18349 12.8459C3.02494 12.425 2.55521 12.2123 2.13431 12.3708C1.71341 12.5294 1.50072 12.9991 1.65927 13.42C1.79243 13.7736 1.94565 14.1166 2.11748 14.4477C2.32467 14.8469 2.81625 15.0026 3.21547 14.7954C3.61467 14.5882 3.77033 14.0966 3.56314 13.6974C3.42087 13.4233 3.29391 13.1391 3.18349 12.8459ZM4.75799 15.3969C4.45202 15.0672 3.93673 15.0481 3.60707 15.3541C3.27742 15.6601 3.25823 16.1753 3.56422 16.505C3.83722 16.7991 4.12877 17.0747 4.43699 17.3298C4.7835 17.6166 5.29686 17.5681 5.58361 17.2216C5.87037 16.8751 5.82193 16.3617 5.47542 16.075C5.22256 15.8657 4.98286 15.6391 4.75799 15.3969ZM7.08075 17.0846C6.67181 16.8973 6.1885 17.0771 6.00125 17.486C5.81401 17.895 5.99372 18.3782 6.40267 18.5655C6.69434 18.6991 6.99427 18.8169 7.30147 18.9181C7.7287 19.0586 8.18902 18.8263 8.32965 18.3991C8.47031 17.9719 8.23793 17.5116 7.81071 17.3709C7.56153 17.2889 7.31795 17.1932 7.08075 17.0846Z" fill="#FAFCFF"/>
</svg>
