<svg width="16" height="16" viewBox="0 0 16 16" fill="none" xmlns="http://www.w3.org/2000/svg">
<path fill-rule="evenodd" clip-rule="evenodd" d="M0.666504 7.33317C0.666504 3.65127 3.65127 0.666504 7.33317 0.666504C11.015 0.666504 13.9998 3.65127 13.9998 7.33317C13.9998 8.93404 13.4356 10.4031 12.4951 11.5523L15.3332 14.3904L14.3904 15.3332L11.5523 12.4951C10.4031 13.4356 8.93404 13.9998 7.33317 13.9998C3.65127 13.9998 0.666504 11.015 0.666504 7.33317ZM7.33317 1.99984C4.38765 1.99984 1.99984 4.38765 1.99984 7.33317C1.99984 10.2787 4.38765 12.6665 7.33317 12.6665C10.2787 12.6665 12.6665 10.2787 12.6665 7.33317C12.6665 4.38765 10.2787 1.99984 7.33317 1.99984Z" fill="#FAFCFF" fill-opacity="0.5"/>
</svg>
