<svg width="128" height="128" viewBox="0 0 128 128" fill="none" xmlns="http://www.w3.org/2000/svg">
<path fill-rule="evenodd" clip-rule="evenodd" d="M102.667 64C96.0398 64 90.667 58.6272 90.667 52V37.2595C87.1683 37.6484 83.531 36.5014 80.8483 33.8186C76.1619 29.1323 76.1619 21.5343 80.8483 16.8481L85.6963 12H21.3337C13.2335 12 6.66699 18.5665 6.66699 26.6667V106.667C6.66699 114.767 13.2335 121.333 21.3337 121.333H101.334C109.434 121.333 116 114.767 116 106.667V64H102.667ZM105.588 105.712C105.588 108.587 103.256 110.918 100.381 110.918H33.792L73.8414 74.8736C77.4649 71.6128 82.8382 71.2229 86.8942 73.9269L105.588 86.3893V105.712ZM40.0003 56C45.8914 56 50.667 51.2244 50.667 45.3333C50.667 39.4423 45.8914 34.6667 40.0003 34.6667C34.1093 34.6667 29.3337 39.4423 29.3337 45.3333C29.3337 51.2244 34.1093 56 40.0003 56Z" fill="#0C0F18"/>
<path fill-rule="evenodd" clip-rule="evenodd" d="M102.667 57.3333C105.612 57.3333 108 54.9456 108 52V24.8757L112.229 29.1045C114.311 31.1873 117.688 31.1873 119.771 29.1045C121.854 27.0217 121.854 23.6449 119.771 21.562L106.438 8.22871C104.355 6.14593 100.978 6.14593 98.8953 8.22871L85.562 21.562C83.4793 23.6449 83.4793 27.0217 85.562 29.1045C87.6447 31.1873 91.0217 31.1873 93.1044 29.1045L97.3332 24.8757V52C97.3332 54.9456 99.7209 57.3333 102.667 57.3333Z" fill="#0C0F18"/>
</svg>
