<svg width="17" height="17" viewBox="0 0 17 17" fill="none" xmlns="http://www.w3.org/2000/svg">
<path fill-rule="evenodd" clip-rule="evenodd" d="M7.77652 1.49855C8.02205 1.40591 8.26359 1.33333 8.49999 1.33333C8.73645 1.33333 8.97792 1.40591 9.22352 1.49855C9.47205 1.59231 9.78252 1.73013 10.1697 1.90199C10.7388 2.15461 11.4899 2.44454 12.2955 2.67355C12.8835 2.84065 13.3587 2.97578 13.7188 3.11539C14.0807 3.25571 14.4087 3.42977 14.6296 3.72215C14.8435 4.00533 14.9257 4.33615 14.9635 4.69293C15.0001 5.03731 15 5.4694 15 5.99255V7.95553C15 9.99279 14.0804 11.6083 12.9689 12.8124C11.8609 14.0127 10.5408 14.8293 9.67072 15.2885L9.62872 15.3107C9.25819 15.5065 8.95532 15.6667 8.49999 15.6667C8.04472 15.6667 7.74185 15.5065 7.37125 15.3107L7.32925 15.2885C6.45922 14.8293 5.13918 14.0127 4.03113 12.8124C2.91964 11.6083 2 9.99279 2 7.95553V5.99256C1.99999 5.46941 1.99998 5.0373 2.03646 4.69293C2.07425 4.33615 2.15654 4.00533 2.37044 3.72215C2.59129 3.42977 2.91937 3.25571 3.28123 3.11539C3.64128 2.97577 4.11659 2.84067 4.7045 2.67355C5.51013 2.44454 6.26121 2.15462 6.83029 1.90201C7.21745 1.73013 7.52792 1.59231 7.77652 1.49855ZM10.1654 6.16666C10.1654 7.08711 9.41919 7.83333 8.49872 7.83333C7.57825 7.83333 6.83203 7.08711 6.83203 6.16666C6.83203 5.24618 7.57825 4.49999 8.49872 4.49999C9.41919 4.49999 10.1654 5.24618 10.1654 6.16666ZM10.3596 9.16746C9.22045 8.49973 7.77979 8.49973 6.64065 9.16746C6.4343 9.28153 5.96314 9.54293 5.7139 9.78306C5.55866 9.93259 5.37335 10.1639 5.33895 10.4737C5.30099 10.8155 5.45907 11.1103 5.70259 11.3387C6.07564 11.6885 6.55672 12 7.19372 12H9.80652C10.4435 12 10.9247 11.6885 11.2977 11.3387C11.5412 11.1103 11.6993 10.8155 11.6613 10.4737C11.6269 10.1639 11.4416 9.93259 11.2864 9.78306C11.0371 9.54293 10.566 9.28153 10.3596 9.16746Z" fill="#FAFCFF" fill-opacity="0.8"/>
</svg>
