<svg width="17" height="14" viewBox="0 0 17 14" fill="none" xmlns="http://www.w3.org/2000/svg">
<g clip-path="url(#clip0_984_3657)">
<path d="M3.09829 10.2931C3.19612 10.1954 3.32875 10.1405 3.46704 10.1405H16.2268C16.4592 10.1405 16.5755 10.4215 16.4111 10.5858L13.8898 13.1051C13.792 13.2029 13.6594 13.2578 13.5211 13.2578H0.761373C0.528931 13.2578 0.41257 12.9767 0.576997 12.8124L3.09829 10.2931Z" fill="#FAFCFF"/>
<path d="M3.09829 0.881293C3.19612 0.783545 3.32875 0.728638 3.46704 0.728638H16.2268C16.4592 0.728638 16.5755 1.00971 16.4111 1.17401L13.8898 3.69329C13.792 3.79104 13.6594 3.84595 13.5211 3.84595H0.761373C0.528931 3.84595 0.41257 3.56487 0.576997 3.40058L3.09829 0.881293Z" fill="#FAFCFF"/>
<path d="M13.8898 5.55723C13.792 5.45946 13.6594 5.40459 13.5211 5.40459H0.761372C0.528931 5.40459 0.412571 5.68563 0.576997 5.84993L3.09829 8.36921C3.19612 8.46698 3.32875 8.52189 3.46704 8.52189H16.2268C16.4592 8.52189 16.5755 8.24081 16.4111 8.07651L13.8898 5.55723Z" fill="#FAFCFF"/>
</g>
<defs>
<clipPath id="clip0_984_3657">
<rect width="16" height="12.5427" fill="white" transform="translate(0.5 0.728638)"/>
</clipPath>
</defs>
</svg>
