<svg width="17" height="16" viewBox="0 0 17 16" fill="none" xmlns="http://www.w3.org/2000/svg">
<path fill-rule="evenodd" clip-rule="evenodd" d="M2.50016 6.16666C2.86836 6.16666 3.16683 6.46514 3.16683 6.83332V10.1667C3.16683 11.1283 3.16825 11.7825 3.23411 12.2724C3.2974 12.7431 3.40898 12.9611 3.55736 13.1095C3.70574 13.2579 3.92375 13.3695 4.39445 13.4327C4.88433 13.4986 5.53851 13.5 6.50016 13.5H10.5002C11.4618 13.5 12.116 13.4986 12.6059 13.4327C13.0766 13.3695 13.2946 13.2579 13.443 13.1095C13.5914 12.9611 13.703 12.7431 13.7662 12.2724C13.8321 11.7825 13.8335 11.1283 13.8335 10.1667V6.83332C13.8335 6.46514 14.132 6.16666 14.5002 6.16666C14.8684 6.16666 15.1668 6.46514 15.1668 6.83332V10.2137C15.1668 11.1165 15.1669 11.8609 15.0877 12.4501C15.0045 13.0686 14.8232 13.6149 14.3858 14.0523C13.9484 14.4897 13.4021 14.671 12.7836 14.7541C12.1944 14.8334 11.45 14.8333 10.5472 14.8333H6.45312C5.55037 14.8333 4.80596 14.8334 4.21679 14.7541C3.59824 14.671 3.05195 14.4897 2.61455 14.0523C2.17714 13.6149 1.99583 13.0686 1.91266 12.4501C1.83346 11.8609 1.83348 11.1165 1.8335 10.2137V6.83332C1.8335 6.46514 2.13198 6.16666 2.50016 6.16666Z" fill="#FAFCFF" fill-opacity="0.8"/>
<path d="M12.1441 1.16666C12.5678 1.16664 12.9287 1.16662 13.2243 1.20158C13.5404 1.23894 13.8318 1.32072 14.0956 1.51765C14.358 1.71348 14.522 1.9703 14.6538 2.26368C14.7783 2.54066 14.8917 2.893 15.0262 3.31091L15.4904 4.75302L15.5003 4.78402C15.6177 5.14817 15.7118 5.44011 15.6429 5.88154C15.6144 6.06448 15.5779 6.2146 15.5161 6.35363C15.458 6.4844 15.3855 6.58458 15.3299 6.66135L15.3217 6.67279C14.6656 7.58119 13.4626 8.16666 12.3364 8.16666C11.6166 8.16666 10.9516 7.92886 10.4179 7.52819C9.8841 7.92912 9.21943 8.16666 8.49943 8.16666C7.77983 8.16666 7.11508 7.92899 6.58146 7.52852C6.04768 7.92926 5.3832 8.16666 4.66342 8.16666C3.53724 8.16666 2.33422 7.58119 1.67811 6.67279L1.66986 6.66136C1.61432 6.58459 1.54184 6.4844 1.4837 6.35363C1.42189 6.2146 1.38542 6.06448 1.35687 5.88153C1.28798 5.44011 1.38208 5.14817 1.49946 4.78401L1.50945 4.75302L1.96526 3.33686L1.97362 3.31092C2.10811 2.89301 2.22151 2.54066 2.34593 2.26368C2.47772 1.9703 2.64183 1.71348 2.90419 1.51765C3.16801 1.32072 3.45944 1.23894 3.77549 1.20158C4.07109 1.16662 4.432 1.16664 4.85567 1.16666H12.1441Z" fill="#FAFCFF" fill-opacity="0.8"/>
<path fill-rule="evenodd" clip-rule="evenodd" d="M4.5 11.6667C4.5 11.2985 4.79848 11 5.16667 11H7.83333C8.20153 11 8.5 11.2985 8.5 11.6667C8.5 12.0349 8.20153 12.3333 7.83333 12.3333H5.16667C4.79848 12.3333 4.5 12.0349 4.5 11.6667Z" fill="#FAFCFF" fill-opacity="0.8"/>
</svg>
