<svg width="24" height="24" viewBox="0 0 24 24" fill="none" xmlns="http://www.w3.org/2000/svg">
<path d="M12.25 8.00049C12.25 5.65328 14.1527 3.75049 16.5 3.75049C18.8472 3.75049 20.75 5.65328 20.75 8.00049C20.75 10.3476 18.8472 12.2505 16.5 12.2505C14.1527 12.2505 12.25 10.3476 12.25 8.00049Z" fill="#FAFCFF" fill-opacity="0.72"/>
<path d="M14.4162 2.90896C12.4118 3.73013 11 5.70043 11 8.00049C11 8.80208 11.1714 9.56363 11.4797 10.2504C9.14185 10.2395 7.25 8.34089 7.25 6.00049C7.25 3.65328 9.15278 1.75049 11.5 1.75049C12.6294 1.75049 13.6554 2.19091 14.4162 2.90896Z" fill="#FAFCFF" fill-opacity="0.72"/>
<path d="M17.6586 14.3084L13.716 15.6912C13.7229 15.7114 13.7286 15.7323 13.7329 15.7539C13.776 15.9667 13.7986 16.1876 13.7986 16.4139C13.7986 16.8093 13.5584 17.183 13.1716 17.3043L10.3329 18.1941C9.62968 18.4146 8.87685 18.337 8.22605 17.98L5.8761 16.4732L6.40659 15.629L8.71217 17.1088C9.12796 17.3321 9.59942 17.3771 10.0397 17.239L12.7405 16.3924V16.2589C12.6685 15.2782 11.9181 14.4923 10.9856 14.4923H9.82083C9.45035 14.4923 9.08462 14.3977 8.75251 14.2155L6.47121 12.964C6.21546 12.8238 5.93297 12.7505 5.64619 12.7505H3.25V19.8227L10.1948 22.1592C10.7082 22.3319 11.2591 22.2578 11.7272 21.9515L20.75 16.0984C20.0349 14.175 18.4502 14.0288 17.6586 14.3084Z" fill="#FAFCFF" fill-opacity="0.72"/>
</svg>
